<?xml version="1.0" standalone="no"?>
<!DOCTYPE svg PUBLIC "-//W3C//DTD SVG 20010904//EN"
 "http://www.w3.org/TR/2001/REC-SVG-20010904/DTD/svg10.dtd">
<svg version="1.0" xmlns="http://www.w3.org/2000/svg"
 width="512.000000pt" height="512.000000pt" viewBox="0 0 512.000000 512.000000"
 preserveAspectRatio="xMidYMid meet">

<g transform="translate(0.000000,512.000000) scale(0.100000,-0.100000)"
fill="#000000" stroke="none">
<path d="M2813 4894 c-3 -9 6 -60 21 -114 30 -114 31 -138 11 -207 -21 -71
-78 -131 -164 -172 -86 -42 -92 -63 -28 -91 78 -35 158 -50 262 -50 97 0 129
6 281 51 60 18 92 5 160 -64 145 -149 214 -370 214 -691 0 -165 -12 -296 -40
-436 -21 -104 -46 -140 -98 -140 -34 0 -141 50 -204 96 -26 19 -50 34 -53 34
-10 0 -4 -77 10 -140 9 -36 36 -106 62 -156 34 -68 44 -98 39 -117 -3 -14 -79
-124 -169 -244 -89 -120 -170 -239 -180 -264 -97 -255 41 -535 297 -604 83
-23 208 -17 286 14 103 40 143 80 337 346 281 385 250 350 324 364 137 27 292
116 372 212 38 47 107 157 107 171 0 4 -61 8 -136 8 -199 0 -199 0 -184 197
30 388 -61 774 -248 1058 -61 93 -238 268 -337 333 -99 66 -231 131 -350 172
-102 35 -114 44 -162 120 -84 131 -183 220 -325 291 -87 44 -96 46 -105 23z
m949 -811 c23 -26 92 -168 121 -248 27 -76 24 -108 -12 -118 -33 -8 -57 21
-91 108 -18 44 -47 109 -66 145 -36 68 -42 98 -22 118 17 17 53 15 70 -5z
m197 -570 c30 -26 45 -175 38 -363 -6 -147 -25 -253 -66 -380 -34 -103 -135
-297 -202 -388 -56 -76 -64 -83 -92 -80 -24 2 -34 10 -41 29 -8 23 -2 37 52
110 108 150 178 301 223 484 27 106 36 338 19 471 -12 97 -12 99 10 116 28 22
33 22 59 1z"/>
<path d="M1645 3536 c-147 -47 -199 -101 -396 -418 -89 -142 -171 -265 -183
-273 -12 -8 -65 -26 -119 -39 -147 -38 -245 -93 -347 -195 -47 -47 -98 -110
-113 -138 l-28 -53 155 0 c94 0 165 -4 180 -11 25 -12 52 -61 43 -76 -3 -5
-11 -81 -17 -169 -32 -465 77 -851 320 -1133 136 -158 357 -300 575 -371 96
-31 105 -37 168 -133 31 -46 83 -109 116 -140 65 -60 181 -136 249 -163 66
-26 70 -14 39 104 -34 123 -34 181 -3 247 30 63 69 100 154 145 37 19 68 42
70 51 3 15 -69 54 -135 74 -100 29 -273 21 -404 -21 -93 -29 -123 -27 -175 13
-46 35 -117 134 -154 217 -66 146 -94 356 -79 602 8 135 36 326 59 406 12 43
52 78 87 78 44 0 131 -56 258 -165 92 -79 89 -79 82 -3 -11 121 -65 232 -162
337 -48 52 -65 81 -65 110 0 11 73 113 161 228 194 250 221 302 227 425 5 97
-7 157 -45 233 -77 154 -228 246 -400 244 -43 0 -96 -6 -118 -13z m-133 -733
c26 -23 23 -34 -28 -103 -164 -223 -239 -417 -265 -687 -9 -94 1 -293 17 -359
4 -15 -1 -29 -15 -43 -26 -26 -33 -26 -60 -3 -62 50 -57 460 8 682 49 168 133
336 236 470 49 64 73 74 107 43z m-224 -1410 c11 -10 29 -44 41 -75 11 -32 41
-98 66 -147 25 -50 45 -99 45 -110 0 -26 -24 -43 -57 -39 -25 3 -34 15 -78
103 -28 55 -62 133 -75 173 l-25 74 24 19 c29 23 34 24 59 2z"/>
</g>
</svg>
